<svg id="Layer_1" data-name="Layer 1" xmlns="http://www.w3.org/2000/svg" viewBox="0 0 900 300"><defs><style>.cls-1{fill:#fc5c5d;}.cls-2{fill:#2c2c2c;}</style></defs><title>logo</title><path class="cls-1" d="M442,155.34a12.26,12.26,0,0,1-24.52,0V124.56h-5.86v30.78a18.12,18.12,0,1,0,36.24,0V124.56H442Z"/><path class="cls-1" d="M493.22,152.58a14.63,14.63,0,0,0,9.4-13.53,14.87,14.87,0,0,0-15.09-14.6h-8.09v0h-5.86v49h5.86V153.65h7.28l14.83,20.1h7.29Zm-13.77-22.27h8.09a8.75,8.75,0,1,1,0,17.48h-8.09Z"/><path class="cls-1" d="M364.83,173.61c-13.24,0-24-11-24-24.52s10.77-24.52,24-24.52,24,11,24,24.52S378.07,173.61,364.83,173.61Zm0-43.23c-9.75,0-17.68,8.39-17.68,18.71s7.93,18.71,17.68,18.71,17.68-8.39,17.68-18.71S374.58,130.38,364.83,130.38Z"/><polygon class="cls-1" points="308.48 135.4 300.69 124.56 286.25 124.56 304.52 149.98 304.52 173.61 316.25 173.61 316.25 157.36 316.25 146.2 308.48 135.4"/><rect class="cls-2" x="44.52" y="124.81" width="11.73" height="48.73"/><rect class="cls-2" x="75.61" y="124.81" width="11.73" height="48.73"/><g id="_Groep_" data-name="&lt;Groep&gt;"><path class="cls-2" d="M208.23,158.7v9.06a23,23,0,0,1-15.1,5.69c-13,0-23.52-10.9-23.52-24.3s10.55-24.29,23.52-24.29a23,23,0,0,1,15.1,5.69v9.05a17.53,17.53,0,0,0-15.1-8.88c-9.74,0-17.66,8.27-17.66,18.43s7.92,18.44,17.66,18.44A17.52,17.52,0,0,0,208.23,158.7Z"/></g><path class="cls-2" d="M133.15,131.5,130,124.81l-.08-.17-.08.17-3.16,6.69-19.9,42h6.49l4.26-9H142.3l4.26,9h6.49Zm-12.85,27.16,9.61-20.32,9.61,20.32Z"/><polygon class="cls-2" points="242.99 148.97 242.99 148.97 266.6 124.81 258.4 124.81 239.77 143.87 239.77 124.81 233.91 124.81 233.91 173.53 239.77 173.53 239.77 154.07 258.8 173.53 267 173.53 242.99 148.97"/><rect class="cls-2" x="529.94" y="125.69" width="39.88" height="11.72"/><rect class="cls-2" x="529.94" y="148.02" width="21" height="11.73"/><path class="cls-2" d="M622,157a12.26,12.26,0,1,1-24.52,0V125.86h-5.86V157a18.12,18.12,0,1,0,36.24,0V125.86H622Z"/><path class="cls-2" d="M736.14,156.64a12.26,12.26,0,0,1-24.52,0V125.86h-5.86v30.78a18.12,18.12,0,1,0,36.24,0V125.86h-5.86Z"/><polygon class="cls-2" points="847.25 131.72 847.25 125.86 827.09 125.86 824.16 125.86 821.23 125.86 821.23 175.05 824.16 175.05 827.09 175.05 847.25 175.05 847.25 169.19 827.09 169.19 827.09 153.62 847.25 153.62 847.25 147.75 827.09 147.75 827.09 131.72 847.25 131.72"/><polygon class="cls-2" points="649.72 131.72 663.93 131.72 663.93 175.05 669.79 175.05 669.79 131.72 684.01 131.72 684.01 125.86 649.72 125.86 649.72 131.72"/><path class="cls-2" d="M787.41,153.87a14.63,14.63,0,0,0,9.4-13.53,14.87,14.87,0,0,0-15.09-14.6h-8.09v0h-5.86v49h5.86V154.95h7.28L795.74,175H803Zm-13.77-22.27h8.09a8.75,8.75,0,1,1,0,17.48h-8.09Z"/></svg>