<svg xmlns="http://www.w3.org/2000/svg" viewBox="0 0 502.901 55"><path d="M35.469.417H30.94c-.613 0-1.184.272-1.568.746L15.738 17.972h9.759l11.54-14.268a2.028 2.028 0 0 0 .253-2.139A2.03 2.03 0 0 0 35.469.417m-9.972 36.098h-9.759l13.633 16.807c.383.474.96.749 1.569.747h4.529a2.03 2.03 0 0 0 1.821-1.148 2.026 2.026 0 0 0-.252-2.137L25.497 36.515M5.78.417H2.017A2.02 2.02 0 0 0 0 2.434v15.538h7.797V2.434A2.02 2.02 0 0 0 5.78.417M7.754 36.46H0v15.595a2.02 2.02 0 0 0 2.017 2.018H5.78a2.02 2.02 0 0 0 2.017-2.018V39.096l-.043-2.636M81.612.417h-3.764a2.02 2.02 0 0 0-2.017 2.017v15.538h7.798V2.434A2.02 2.02 0 0 0 81.612.417m-30.246 0h-3.763a2.018 2.018 0 0 0-2.017 2.017v15.538h7.797V2.434A2.018 2.018 0 0 0 51.366.417M83.612 36.46h-7.807l-.054.564c-.603 6.222-4.872 10.087-11.144 10.087-6.271 0-10.54-3.865-11.142-10.087l-.054-.564h-7.808l.036.659c.568 10.228 8.368 17.371 18.968 17.371 10.601 0 18.401-7.143 18.969-17.371l.036-.659m96.473 0h-7.9l.119.725c.09.547.135 1.119.135 1.699 0 5.151-4.014 8.227-10.738 8.227-5.594 0-8.668-1.279-12.651-5.262a2.014 2.014 0 0 0-1.426-.572c-.523 0-1.046.191-1.427.572l-2.648 2.647c-.376.376-.592.896-.592 1.427s.216 1.05.592 1.425c5.073 5.073 10.272 7.142 17.943 7.142 11.386 0 18.743-6.18 18.743-15.746 0-.565-.031-1.146-.092-1.725l-.058-.559M161.423 0c-10.582 0-17.419 6.126-17.419 15.607 0 .577.031 1.167.096 1.804l.057.561h7.867l-.134-.735a9.813 9.813 0 0 1-.159-1.769c0-5.229 3.457-8.228 9.482-8.228 5.103 0 7.795 1.5 10.72 4.092.37.327.852.489 1.334.489a2.01 2.01 0 0 0 1.428-.573l2.44-2.438c.395-.395.611-.941.591-1.497a2.03 2.03 0 0 0-.693-1.452C172.177 1.643 167.801 0 161.423 0m44.552 36.46h-7.798v15.595a2.02 2.02 0 0 0 2.018 2.018h3.764a2.019 2.019 0 0 0 2.016-2.018V36.46M218.802.417H185.42a2.02 2.02 0 0 0-2.017 2.017V5.78c0 1.112.905 2.016 2.017 2.016h12.757v10.176h7.797V7.796h12.828a2.02 2.02 0 0 0 2.017-2.016V2.434a2.02 2.02 0 0 0-2.017-2.017m16.206 36.043h-7.798v15.595a2.02 2.02 0 0 0 2.017 2.018h30.105a2.02 2.02 0 0 0 2.016-2.018V48.71a2.018 2.018 0 0 0-2.016-2.016h-24.324V36.46M259.331.417h-30.105a2.02 2.02 0 0 0-2.016 2.017v15.538h7.797V7.796h24.324a2.02 2.02 0 0 0 2.017-2.016V2.434a2.02 2.02 0 0 0-2.017-2.017m70.987 36.043h-7.796v15.595c0 1.113.904 2.018 2.016 2.018h3.763a2.02 2.02 0 0 0 2.017-2.018V36.46M342.729.417h-18.191a2.02 2.02 0 0 0-2.016 2.017v15.538h7.796V7.796h11.992c4.389 0 9.621 1.549 9.621 8.925 0 .122-.008.237-.015.35l-.04.901h7.806l.031-.838c.009-.137.016-.273.016-.413 0-9.752-6.831-16.304-17-16.304m61.767 36.043h-7.808l-.054.564c-.602 6.222-4.872 10.087-11.143 10.087-6.272 0-10.543-3.865-11.145-10.087l-.054-.564h-7.806l.037.659c.566 10.228 8.366 17.371 18.968 17.371 10.601 0 18.401-7.143 18.968-17.371l.037-.659m-2-36.043h-3.764a2.02 2.02 0 0 0-2.017 2.017v15.538h7.798V2.434a2.02 2.02 0 0 0-2.017-2.017m-30.248 0h-3.762a2.02 2.02 0 0 0-2.018 2.017v15.538h7.797V2.434a2.02 2.02 0 0 0-2.017-2.017M486.502 36.46h-7.797v15.595a2.02 2.02 0 0 0 2.018 2.018h3.762a2.02 2.02 0 0 0 2.017-2.018V36.46M499.329.417h-33.38a2.02 2.02 0 0 0-2.017 2.017V5.78c0 1.112.905 2.016 2.017 2.016h12.756v10.176h7.797V7.796h12.827a2.02 2.02 0 0 0 2.017-2.016V2.434a2.02 2.02 0 0 0-2.017-2.017M132.457.349h-3.763a2.018 2.018 0 0 0-2.017 2.017v15.576h7.797V2.366a2.019 2.019 0 0 0-2.017-2.017m-30.39 36.11h-7.795v15.528c0 1.112.904 2.017 2.016 2.017h3.763a2.019 2.019 0 0 0 2.016-2.017V36.459M100.055.423h-3.764a2.02 2.02 0 0 0-2.016 2.017v15.509l9.402.012 23.34 35.216a2.017 2.017 0 0 0 1.682.901h3.763a2.019 2.019 0 0 0 2.017-2.017V36.473l-9.04-.02-23.706-35.13a2.009 2.009 0 0 0-1.678-.9M308.438.315h-3.763a2.02 2.02 0 0 0-2.017 2.016v15.577h7.797V2.331a2.02 2.02 0 0 0-2.017-2.016m-30.39 36.11h-7.796v15.528c0 1.112.904 2.017 2.016 2.017h3.763a2.019 2.019 0 0 0 2.017-2.017V36.425M276.035.388h-3.764a2.02 2.02 0 0 0-2.016 2.017v15.509l9.403.012 23.34 35.216a2.015 2.015 0 0 0 1.681.901h3.763a2.02 2.02 0 0 0 2.018-2.017V36.438l-9.041-.02-23.705-35.13a2.01 2.01 0 0 0-1.679-.9M454.126.319h-3.763a2.02 2.02 0 0 0-2.017 2.016v15.577h7.797V2.335a2.02 2.02 0 0 0-2.017-2.016m-30.391 36.109h-7.796v15.528c0 1.112.904 2.017 2.017 2.017h3.762a2.019 2.019 0 0 0 2.017-2.017V36.428M421.723.392h-3.763a2.019 2.019 0 0 0-2.017 2.017v15.509l9.403.012 23.339 35.216a2.017 2.017 0 0 0 1.682.901h3.763a2.02 2.02 0 0 0 2.018-2.017V36.442l-9.041-.02-23.705-35.13a2.01 2.01 0 0 0-1.679-.9" fill="#ed3224"/></svg>