<?xml version="1.0" encoding="utf-8"?>
<!-- Generator: Adobe Illustrator 21.1.0, SVG Export Plug-In . SVG Version: 6.00 Build 0)  -->
<svg version="1.1" id="_x2E__x5C__x5C__PrintSimple"
	 xmlns="http://www.w3.org/2000/svg" xmlns:xlink="http://www.w3.org/1999/xlink" x="0px" y="0px" viewBox="0 0 178.3 163.3"
	 style="enable-background:new 0 0 178.3 163.3;" xml:space="preserve">
<style type="text/css">
	.st0{fill:#CE2127;}
	.st1{fill-rule:evenodd;clip-rule:evenodd;fill:#CE2127;}
</style>
<g>
	<g id="Marque_2_">
		<path id="Streep_8_" class="st0" d="M85.8,14.9l45.5,79.6c3.6,6.4,9.1,10.5,16.3,12.5c7.2,1.9,14.9,0.5,23.3-4.4l-45.5-79.6
			c-3.7-6.4-9.1-10.5-16.3-12.5C101.9,8.6,94.2,10.1,85.8,14.9L85.8,14.9z"/>
		<path id="Streep_7_" class="st0" d="M30.4,14.9l45.5,79.6c3.6,6.4,9.1,10.5,16.3,12.5c7.2,1.9,14.9,0.5,23.3-4.4L69.9,23.1
			c-3.7-6.4-9.1-10.5-16.3-12.5C46.4,8.6,38.7,10.1,30.4,14.9L30.4,14.9z"/>
		<circle id="Ball_4_" class="st1" cx="23.7" cy="69.5" r="16.4"/>
	</g>
	<g>
		<path id="e_3_" d="M138.1,133.9c3.8,0,5.8,2.8,5.8,6.3c0,0.3-0.1,1.1-0.1,1.1H134c0.1,3,2.2,4.4,4.6,4.4c2.3,0,4-1.6,4-1.6
			l1.1,1.9c0,0-2,1.9-5.2,1.9c-4.2,0-7.1-3.1-7.1-7.1C131.3,136.7,134.2,133.9,138.1,133.9z M141.2,139.4c-0.1-2.3-1.5-3.4-3.2-3.4
			c-2,0-3.6,1.2-3.9,3.4H141.2z"/>
		<path id="l_3_" d="M125.5,129.3h2.5V144c0,1.6,0.6,1.8,1.4,1.8c0.2,0,0.4,0,0.4,0v2.2c0,0-0.4,0.1-0.8,0.1c-1.4,0-3.5-0.4-3.5-3.6
			V129.3z"/>
		<path id="p_3_" d="M110.1,133.9h2.4v2.5c0,0,1.1-2.5,4.5-2.5c3.6,0,5.9,2.9,5.9,7.1c0,4.3-2.6,7.1-6.1,7.1c-3,0-4.1-2.2-4.1-2.2
			v7.8h-2.6V133.9z M116.4,145.8c2.1,0,3.9-1.8,3.9-4.8c0-2.9-1.6-4.8-3.8-4.8c-2,0-3.9,1.4-3.9,4.8
			C112.6,143.4,113.9,145.8,116.4,145.8z"/>
		<path id="m_3_" d="M85.7,133.9h2.7v3.2c0.7-1.6,2.6-3.2,4.8-3.2c2.4,0,3.8,1.1,4.2,3.2h0.1c0.8-1.7,2.7-3.2,5-3.2
			c3.2,0,4.7,1.8,4.7,5.4v8.7h-2.7v-8.1c0-2-0.4-3.5-2.5-3.5c-2,0-3.5,1.7-4,3.6c-0.1,0.6-0.2,1.2-0.2,2v6.1H95v-8.1
			c0-1.8-0.3-3.5-2.5-3.5c-2.1,0-3.5,1.7-4,3.7c-0.1,0.6-0.2,1.2-0.2,1.8v6.1l-2.7,0V133.9z"/>
		<path id="i_6_" d="M80,129.3h2.7v2.8H80V129.3z M80,133.9h2.7V148H80V133.9z"/>
		<path id="S_3_" d="M66.2,143.5c0,0,2,2.1,4.9,2.1c1.8,0,3.3-1,3.3-2.8c0-4.1-9.2-3.2-9.2-9.1c0-3,2.6-5.3,6.2-5.3
			c3.5,0,5.4,1.9,5.4,1.9l-1.2,2.2c0,0-1.8-1.6-4.2-1.6c-2,0-3.5,1.3-3.5,2.8c0,3.9,9.2,2.9,9.2,9.1c0,2.9-2.3,5.4-6,5.4
			c-4,0-6.3-2.5-6.3-2.5L66.2,143.5z"/>
		<path id="t_3_" d="M56.6,135.9h-1.7v-2h1.8v-4.6H59v4.6h3.1v2H59v7c0,2.6,1.8,2.9,2.8,2.9c0.4,0,0.6-0.1,0.6-0.1v2.2
			c0,0-0.4,0.1-0.9,0.1c-1.7,0-5-0.5-5-4.8V135.9z"/>
		<path id="n_3_" d="M39.7,133.9h2.7v3.2c0.6-1.2,2.1-3.2,5.2-3.2c3.3,0,4.9,1.8,4.9,5.4v8.7h-2.7V140c0-2-0.4-3.5-2.7-3.5
			c-2.1,0-3.9,1.4-4.5,3.5c-0.2,0.6-0.2,1.2-0.2,1.9v6.3h-2.7V133.9z"/>
		<path id="i_5_" d="M34.1,129.3h2.7v2.8h-2.7V129.3z M34.1,133.9h2.7V148h-2.7V133.9z"/>
		<path id="r_3_" d="M23.4,133.9h2.7v3.7c0.6-2.1,2.2-3.7,4.4-3.7c0.4,0,0.7,0.1,0.7,0.1v2.7c0,0-0.4-0.1-0.8-0.1
			c-1.7,0-3.3,1.2-4,3.3c-0.3,0.8-0.3,1.7-0.3,2.5v5.6h-2.7V133.9z"/>
		<path id="P_3_" d="M7.3,128.3h7.2c3.6,0,6.2,2.4,6.2,6.2c0,3.7-2.6,6.2-6.2,6.2h-4.4v7.3H7.3V128.3z M14.1,138.4
			c2.4,0,3.8-1.5,3.8-3.9s-1.5-3.8-3.8-3.8h-4v7.6H14.1z"/>
		<path d="M146.1,146h2v2h-2V146z"/>
		<path d="M155.5,137.8c2.8,0,4.3,2.1,4.3,4.7c0,0.3-0.1,0.8-0.1,0.8h-7.3c0.1,2.2,1.7,3.3,3.4,3.3c1.7,0,3-1.2,3-1.2l0.8,1.4
			c0,0-1.5,1.4-3.9,1.4c-3.2,0-5.3-2.3-5.3-5.3C150.5,139.8,152.6,137.8,155.5,137.8z M157.9,141.9c-0.1-1.7-1.1-2.6-2.4-2.6
			c-1.5,0-2.7,0.9-2.9,2.6H157.9z"/>
		<path d="M162,138h1.9v6c0,1.4,0.3,2.5,1.9,2.5c2,0,3.3-1.8,3.3-3.8V138h1.9v10h-1.9v-1.3c0-0.4,0-0.7,0-0.7h0
			c-0.4,1-1.7,2.3-3.7,2.3c-2.3,0-3.4-1.2-3.4-3.8V138z"/>
	</g>
</g>
</svg>
